<?xml version="1.0" encoding="UTF-8" standalone="no"?>
<svg
   width="16"
   height="16"
   version="1.1"
   id="svg1"
   sodipodi:docname="Shaker3D.svg"
   inkscape:version="1.3.2 (091e20e, 2023-11-25, custom)"
   xmlns:inkscape="http://www.inkscape.org/namespaces/inkscape"
   xmlns:sodipodi="http://sodipodi.sourceforge.net/DTD/sodipodi-0.dtd"
   xmlns="http://www.w3.org/2000/svg"
   xmlns:svg="http://www.w3.org/2000/svg">
  <defs
     id="defs1" />
  <sodipodi:namedview
     id="namedview1"
     pagecolor="#505050"
     bordercolor="#eeeeee"
     borderopacity="1"
     inkscape:showpageshadow="0"
     inkscape:pageopacity="0"
     inkscape:pagecheckerboard="0"
     inkscape:deskcolor="#d1d1d1"
     inkscape:zoom="53.8125"
     inkscape:cx="8.4645761"
     inkscape:cy="8.6875726"
     inkscape:window-width="1920"
     inkscape:window-height="1057"
     inkscape:window-x="1912"
     inkscape:window-y="-8"
     inkscape:window-maximized="1"
     inkscape:current-layer="svg1" />
  <circle
     cx="8"
     cy="8"
     r="5"
     fill="none"
     stroke="#8da5f3"
     stroke-width="2"
     id="circle1"
     style="display:none;fill:#fc7f7f;fill-opacity:1" />
  <path
     fill="none"
     stroke="#8da5f3"
     stroke-width="2"
     id="circle2"
     style="display:inline;stroke-width:1;stroke-dasharray:none;stroke:#fc7f7f;stroke-opacity:1"
     sodipodi:type="arc"
     sodipodi:cx="8"
     sodipodi:cy="8"
     sodipodi:rx="4.4796748"
     sodipodi:ry="4.4796748"
     sodipodi:start="0"
     sodipodi:end="1.5707963"
     sodipodi:arc-type="arc"
     d="M 12.479675,8 A 4.4796748,4.4796748 0 0 1 8,12.479675"
     sodipodi:open="true" />
  <path
     fill="none"
     stroke="#8da5f3"
     stroke-width="2"
     id="path3"
     style="display:inline;stroke-width:1;stroke-dasharray:none;stroke:#fc7f7f;stroke-opacity:1"
     sodipodi:type="arc"
     sodipodi:cx="8"
     sodipodi:cy="8"
     sodipodi:rx="6.4866433"
     sodipodi:ry="6.4866433"
     sodipodi:start="0"
     sodipodi:end="1.5707963"
     sodipodi:arc-type="arc"
     d="M 14.486643,8 A 6.4866433,6.4866433 0 0 1 8,14.486643"
     sodipodi:open="true" />
  <path
     style="fill:#fc7f7f;fill-opacity:1;stroke:#fc7f7f;stroke-width:0.0139042;stroke-opacity:1"
     d="M 7.7981193,10.981607 C 7.76753,10.978449 7.6893189,10.969301 7.6243168,10.961277 6.5192524,10.824887 5.5694058,10.061437 5.1862917,9.0016854 4.9980536,8.4809901 4.9651002,7.8668502 5.0952715,7.3053736 5.1625497,7.0151777 5.3274054,6.6318706 5.492943,6.3807446 5.8023126,5.9114206 6.2021501,5.5588779 6.6996878,5.3167397 7.1264607,5.1090407 7.5179087,5.0195581 7.9997301,5.0195581 c 0.4879517,0 0.8819048,0.091117 1.3139464,0.3038999 0.8911375,0.438891 1.4915075,1.2647934 1.6428545,2.2599995 0.03274,0.2152629 0.0326,0.6158511 -2.89e-4,0.8342517 -0.09918,0.6586413 -0.382632,1.2230192 -0.84913,1.6906718 -0.4627079,0.463853 -1.0295898,0.749161 -1.683304,0.847198 -0.1393954,0.0209 -0.5214073,0.0368 -0.6256887,0.02603 z"
     id="path2" />
  <path
     fill="none"
     stroke="#8da5f3"
     stroke-width="2"
     id="path4"
     style="display:inline;stroke-width:1;stroke-dasharray:none;stroke:#fc7f7f;stroke-opacity:1"
     sodipodi:type="arc"
     sodipodi:cx="-8"
     sodipodi:cy="-8"
     sodipodi:rx="4.4982576"
     sodipodi:ry="4.4982576"
     sodipodi:start="0"
     sodipodi:end="1.5707963"
     sodipodi:arc-type="arc"
     d="M -3.5017424,-8 A 4.4982576,4.4982576 0 0 1 -8,-3.5017424"
     sodipodi:open="true"
     transform="scale(-1)" />
  <path
     fill="none"
     stroke="#8da5f3"
     stroke-width="2"
     id="path5"
     style="display:inline;stroke-width:1;stroke-dasharray:none;stroke:#fc7f7f;stroke-opacity:1"
     sodipodi:type="arc"
     sodipodi:cx="-8"
     sodipodi:cy="-8"
     sodipodi:rx="6.5052261"
     sodipodi:ry="6.5052261"
     sodipodi:start="0"
     sodipodi:end="1.5707963"
     sodipodi:arc-type="arc"
     d="M -1.4947739,-8 A 6.5052261,6.5052261 0 0 1 -8,-1.4947739"
     sodipodi:open="true"
     transform="scale(-1)" />
</svg>
